<svg width="175" height="39" viewBox="0 0 175 39" fill="none"
    xmlns="http://www.w3.org/2000/svg">
    <path d="M0.88 29H5.68V18.44C5.68 15.88 7.12 13.24 10.16 13.24C13.24 13.24 13.76 16.08 13.76 18.36V29H18.56V17C18.56 13.08 16.48 9.24 11.48 9.24C8.64 9.24 6.36 10.96 5.52 12.88H5.44V9.8H0.88V29ZM41.6813 9.8H36.8813V20.36C36.8813 22.92 35.4413 25.56 32.4013 25.56C29.3213 25.56 28.8013 22.72 28.8013 20.44V9.8H24.0013V21.8C24.0013 25.72 26.0813 29.56 31.0813 29.56C33.9213 29.56 36.2013 27.84 37.0413 25.92H37.1213V29H41.6813V9.8ZM70.3625 9.24C67.4825 9.24 65.3225 10.56 64.0425 12.88C62.9625 10.72 61.0025 9.24 58.0425 9.24C54.9625 9.24 52.9225 11 52.0825 12.88H52.0025V9.8H47.4425V29H52.2425V18.44C52.2425 15.88 53.5625 13.24 56.4425 13.24C58.8825 13.24 60.0025 15.04 60.0025 17.4V29H64.8025V18.52C64.8025 16.04 66.0425 13.24 69.0425 13.24C72.1225 13.24 72.6425 16.08 72.6425 18.36V29H77.4425V17C77.4425 13.08 75.3625 9.24 70.3625 9.24ZM94.9484 29H99.4284V17.32C99.4284 13.48 97.7484 9.24 90.8684 9.24C87.9484 9.24 84.9084 10.28 82.7484 12.28L85.2284 15.2C86.4684 13.96 88.4284 13 90.4684 13C92.8684 13 94.8684 14.16 94.8684 16.52V17C88.8684 17 81.6684 17.8 81.6684 23.52C81.6684 28 85.7884 29.48 88.8684 29.48C91.5884 29.48 93.8684 28.24 94.8284 26.56H94.9484V29ZM94.8684 20.92C94.8684 23.96 93.1084 25.84 89.8284 25.84C88.1884 25.84 86.4684 25.28 86.4684 23.44C86.4684 20.6 90.7484 20.24 93.7884 20.24H94.8684V20.92ZM105.021 9.8V38.6H109.821V26.44H109.901C111.141 28.36 113.581 29.56 116.261 29.56C122.101 29.56 125.701 24.92 125.701 19.32C125.701 13.64 121.861 9.24 116.381 9.24C112.861 9.24 110.701 10.96 109.741 12.48H109.621V9.8H105.021ZM120.821 19.32C120.821 22.32 119.021 25.56 115.301 25.56C111.781 25.56 109.661 22.4 109.661 19.4C109.661 16.4 111.781 13.16 115.301 13.16C119.021 13.16 120.821 16.32 120.821 19.32ZM130.333 29H135.133V18.72C135.133 17.32 135.973 13.56 140.293 13.56C140.733 13.56 141.133 13.6 141.773 13.76V9.36C141.453 9.28 140.973 9.24 140.613 9.24C138.093 9.24 136.053 10.8 135.013 13H134.933V9.8H130.333V29ZM143.08 19.32C143.08 25.36 147.72 29.56 153.52 29.56C159.32 29.56 163.96 25.36 163.96 19.32C163.96 13.28 159.32 9.24 153.52 9.24C147.72 9.24 143.08 13.28 143.08 19.32ZM147.96 19.32C147.96 16.32 149.72 13.16 153.52 13.16C157.32 13.16 159.08 16.32 159.08 19.32C159.08 22.32 157.32 25.56 153.52 25.56C149.72 25.56 147.96 22.32 147.96 19.32ZM168.694 9.8V30.36C168.694 32.56 168.374 34.44 166.094 34.44C165.734 34.44 165.214 34.4 164.774 34.28L164.374 38.36C164.854 38.48 165.734 38.6 166.534 38.6C172.254 38.6 173.494 34.76 173.494 30.16V9.8H168.694ZM168.014 3.28C168.014 4.8 169.294 6.16 171.054 6.16C172.814 6.16 174.174 4.92 174.174 3.28C174.174 1.64 172.814 0.399999 171.054 0.399999C169.294 0.399999 168.014 1.76 168.014 3.28Z" fill="white" />
</svg>