<svg width="707" height="145" viewBox="0 0 707 145" fill="none"
    xmlns="http://www.w3.org/2000/svg">
    <path d="M155.32 107.96V36.0514H131.639V74.8934C131.639 83.1239 127.163 90.3436 118.932 90.3436C110.269 90.3436 108.247 83.1239 108.247 75.0378V36.0514H84.4223V80.5248C84.4223 94.9642 91.2088 109.981 110.558 109.981C120.665 109.981 128.896 104.35 132.217 97.9964H132.505V107.96H155.32Z" fill="white"/>
    <path d="M285.745 107.96V63.4863C285.745 49.9132 279.103 34.0299 259.609 34.0299C248.924 34.0299 241.416 38.7949 236.651 46.3034C232.608 38.5061 225.388 34.0299 214.992 34.0299C204.162 34.0299 196.798 39.95 193.477 46.0146H193.188V36.0514H170.23V107.96H194.055V68.9732C194.055 60.3096 198.386 53.5231 205.895 53.5231C212.97 53.5231 216.147 58.7213 216.147 66.9517V107.96H239.828V69.1176C239.828 61.0316 243.726 53.5231 251.812 53.5231C260.187 53.5231 262.064 60.454 262.064 68.6844V107.96H285.745Z" fill="white"/>
    <path d="M344.272 79.0808C344.272 88.0333 338.929 93.809 329.399 93.809C324.634 93.809 319.147 91.9319 319.147 86.4449C319.147 77.9257 330.843 76.6261 341.24 76.6261H344.272V79.0808ZM312.794 58.7213C317.126 54.6782 323.768 51.3572 330.554 51.3572C337.919 51.3572 343.55 54.6782 343.55 61.7535V62.9087C322.613 62.9087 297.344 66.3741 297.344 87.1669C297.344 104.061 312.072 109.692 323.479 109.692C331.998 109.692 340.229 106.227 343.839 100.307H344.272V107.96H365.931V71.7167C365.931 45.5814 356.979 33.7411 332.865 33.7411C321.169 33.7411 309.184 37.9285 300.809 45.8702L312.794 58.7213Z" fill="white"/>
    <path d="M71.6203 108V63.34C71.6203 48.84 64.6603 33.76 45.2303 33.76C35.2253 33.76 26.9603 39.415 23.6253 45.795H23.3353V35.79H0.280273V108H24.2053V68.85C24.2053 60.585 28.5553 53.335 36.9653 53.335C45.5203 53.335 47.6953 60.585 47.6953 68.56V108H71.6203Z" fill="white"/>
    <path d="M568.224 47.0614V38.3202H589.605V102.942C589.605 116.92 585.451 127.132 578.196 133.855C570.934 140.583 560.495 143.883 547.798 143.883C535.488 143.883 521.097 139.97 511.523 133.007L522.766 116.966C529.723 122.87 538.457 125.823 546.498 125.823C553.527 125.823 558.763 123.771 562.238 120.127C565.709 116.488 567.358 111.331 567.358 105.252V100.92V100.42H566.858H566.425H566.18L566.029 100.614C561.663 106.249 554.023 109.95 544.621 109.95C533.86 109.95 525.408 105.751 519.639 99.1124C513.864 92.4661 510.755 83.3469 510.755 73.4855C510.755 53.7523 523.17 36.2987 544.477 36.2987C553.307 36.2987 562.08 39.8586 567.018 47.337L567.166 47.5614H567.435H567.724H568.224V47.0614ZM406.992 1.06653V109.228H384.022V1.06653H406.992ZM458.875 36.0099C480.453 36.0099 498.372 50.2733 498.372 73.4855C498.372 96.7075 480.442 111.539 458.875 111.539C437.453 111.539 419.522 96.7086 419.522 73.4855C419.522 50.2722 437.443 36.0099 458.875 36.0099ZM459.019 92.6124C470.502 92.6124 476.558 82.9053 476.558 73.4855C476.558 64.049 470.344 54.6475 458.875 54.6475C453.165 54.6475 448.801 56.9896 445.873 60.5326C442.954 64.0645 441.481 68.7666 441.481 73.4855C441.481 82.9053 447.536 92.6124 459.019 92.6124ZM550.108 92.1792C561.263 92.1792 568.08 83.3841 568.08 73.3412C568.08 63.29 561.111 54.6475 550.108 54.6475C544.627 54.6475 540.264 56.7632 537.278 60.179C534.298 63.5872 532.714 68.2586 532.714 73.3412C532.714 83.0687 539.074 92.1792 550.108 92.1792ZM615.62 2.36608C622.874 2.36608 628.693 7.93901 628.693 14.8615C628.693 21.9249 622.878 27.357 615.62 27.357C608.229 27.357 602.547 21.6466 602.547 14.8615C602.547 8.2173 608.233 2.36608 615.62 2.36608ZM626.96 38.3202V109.228H604.28V38.3202H626.96ZM680.041 36.0099C690.003 36.0099 700.473 39.7319 706.072 45.209L693.053 60.2845C690.243 56.9461 685.147 54.7919 680.475 54.7919C670.168 54.7919 663.369 63.6079 663.369 73.7743C663.369 83.9492 670.031 92.6124 680.763 92.6124C685.424 92.6124 690.534 90.8595 693.601 87.5423L706.074 102.756C700.229 108.227 690.44 111.539 680.186 111.539C668.956 111.539 659.01 107.963 651.878 101.471C644.751 94.9843 640.4 85.5558 640.4 73.7743C640.4 62.2127 644.785 52.7821 651.916 46.2386C659.051 39.6908 668.961 36.0099 680.041 36.0099Z" fill="url(#paint0_linear_50_20216)" stroke="url(#paint1_linear_50_20216)"/>
    <defs>
        <linearGradient id="paint0_linear_50_20216" x1="529.721" y1="113.374" x2="559.503" y2="-23.8" gradientUnits="userSpaceOnUse">
            <stop stop-color="#1EC9E4"/>
            <stop offset="1" stop-color="#1EC9E4" stop-opacity="0.37"/>
        </linearGradient>
        <linearGradient id="paint1_linear_50_20216" x1="555.893" y1="0.566527" x2="526.112" y2="134.131" gradientUnits="userSpaceOnUse">
            <stop stop-color="#B4FAFF"/>
            <stop offset="1" stop-color="#23F2FF" stop-opacity="0"/>
        </linearGradient>
    </defs>
</svg>
