<svg width="100%" viewBox="0 0 691 114" fill="none"
    xmlns="http://www.w3.org/2000/svg">
    <path d="M155.32 110.96V39.0514H131.639V77.8934C131.639 86.1239 127.163 93.3436 118.932 93.3436C110.269 93.3436 108.247 86.1239 108.247 78.0378V39.0514H84.4223V83.5248C84.4223 97.9642 91.2088 112.981 110.558 112.981C120.665 112.981 128.896 107.35 132.217 100.996H132.505V110.96H155.32Z" fill="white"/>
    <path d="M285.745 110.96V66.4863C285.745 52.9132 279.103 37.0299 259.609 37.0299C248.924 37.0299 241.416 41.7949 236.651 49.3034C232.608 41.5061 225.388 37.0299 214.992 37.0299C204.162 37.0299 196.798 42.95 193.477 49.0146H193.188V39.0514H170.23V110.96H194.055V71.9732C194.055 63.3096 198.386 56.5231 205.895 56.5231C212.97 56.5231 216.147 61.7213 216.147 69.9517V110.96H239.828V72.1176C239.828 64.0316 243.726 56.5231 251.812 56.5231C260.187 56.5231 262.064 63.454 262.064 71.6844V110.96H285.745Z" fill="white"/>
    <path d="M344.272 82.0808C344.272 91.0333 338.929 96.809 329.399 96.809C324.634 96.809 319.147 94.9319 319.147 89.4449C319.147 80.9257 330.843 79.6261 341.24 79.6261H344.272V82.0808ZM312.794 61.7213C317.126 57.6782 323.768 54.3572 330.554 54.3572C337.919 54.3572 343.55 57.6782 343.55 64.7535V65.9087C322.613 65.9087 297.344 69.3741 297.344 90.1669C297.344 107.061 312.072 112.692 323.479 112.692C331.998 112.692 340.229 109.227 343.839 103.307H344.272V110.96H365.931V74.7167C365.931 48.5814 356.979 36.7411 332.865 36.7411C321.169 36.7411 309.184 40.9285 300.809 48.8702L312.794 61.7213Z" fill="white"/>
    <path d="M71.6203 111V66.34C71.6203 51.84 64.6603 36.76 45.2303 36.76C35.2253 36.76 26.9603 42.415 23.6253 48.795H23.3353V38.79H0.280273V111H24.2053V71.85C24.2053 63.585 28.5553 56.335 36.9653 56.335C45.5203 56.335 47.6953 63.585 47.6953 71.56V111H71.6203Z" fill="white"/>
    <path d="M394.104 40.388H394.604V39.888V32.976C394.604 24.244 396.324 16.1301 400.942 10.2075C405.542 4.3083 413.084 0.5 424.92 0.5C428.764 0.5 432.712 0.896223 435.764 1.79964L434.266 19.4983C432.549 19.002 430.333 18.652 428.232 18.652C423.751 18.652 420.954 20.46 419.308 23.177C417.689 25.8509 417.22 29.3463 417.22 32.688V39.888V40.388H417.72H433.204V57.1H417.72H417.22V57.6V111.1H394.604V57.6V57.1H394.104H381.5V40.388H394.104ZM666.215 40.388H689.612L665.047 111.1H642.009L628.007 66.8093L627.897 66.46H627.531H627.243H626.874L626.765 66.8121L613.05 111.1H590.015L565.592 40.388H589.997L602.28 85.3797L602.381 85.748H602.763H603.195H603.573L603.676 85.3839L616.389 40.388H639.396L652.539 85.3882L652.644 85.748H653.019H653.307H653.687L653.789 85.3811L666.215 40.388ZM469.9 3.236V111.1H446.996V3.236H469.9ZM522.266 38.084C543.785 38.084 561.654 52.308 561.654 75.456C561.654 98.6137 543.774 113.404 522.266 113.404C500.904 113.404 483.022 98.6148 483.022 75.456C483.022 52.3069 500.893 38.084 522.266 38.084ZM522.41 94.532C533.863 94.532 539.902 84.8505 539.902 75.456C539.902 66.0447 533.705 56.668 522.266 56.668C516.571 56.668 512.219 59.0039 509.299 62.5375C506.388 66.06 504.918 70.7497 504.918 75.456C504.918 84.8505 510.958 94.532 522.41 94.532Z" fill="url(#paint0_linear_50_20216)" stroke="url(#paint1_linear_50_20216)"/>
    <defs>
        <linearGradient id="paint0_linear_50_20216" x1="522.261" y1="89.3449" x2="541.885" y2="-20.9271" gradientUnits="userSpaceOnUse">
            <stop stop-color="#1EC9E4"/>
            <stop offset="1" stop-color="#1EC9E4" stop-opacity="0.37"/>
        </linearGradient>
        <linearGradient id="paint1_linear_50_20216" x1="547.549" y1="-3.8464e-06" x2="527.909" y2="107.454" gradientUnits="userSpaceOnUse">
            <stop stop-color="#B4FAFF"/>
            <stop offset="1" stop-color="#23F2FF" stop-opacity="0"/>
        </linearGradient>
    </defs>
</svg>
