<svg width="147" height="183" viewBox="0 0 147 183" fill="none"
    xmlns="http://www.w3.org/2000/svg">
    <path d="M41.2083 182.298C66.8097 182.298 79.5658 150.962 58.0714 145.355C41.2083 139.418 37.2383 124.905 37.2383 115.998C37.2383 95.3865 56.7965 83.3997 74.6055 84.8501L71.9601 114.679C73.7543 112.809 87.8329 96.8671 92.1318 91.8371C98.1105 96.9153 102.325 104.839 103.044 115.998C104.176 133.561 89.817 143.375 84.5261 147.333C79.2351 151.292 70.97 182.298 115.282 182.298C150.731 182.298 148.57 139.637 143.059 118.307C135.343 93.4579 118.985 40.462 115.282 27.268C132.477 13.4142 117.596 -4.72751 101.393 8.79637C75.4673 -5.98092 50.4675 0.990514 41.2083 7.14772C35.9174 3.84921 26.3938 2.19996 22.6902 10.1164C18.9865 18.0328 24.8947 24.4093 29.3038 27.268C19.6038 61.7923 4.4992 113.228 1.85351 123.255C-4.49948 147.333 4.73108 182.298 41.2083 182.298Z" fill="white"/>
    <ellipse cx="96.1116" cy="28.8789" rx="2.25616" ry="2.70739" fill="black"/>
    <path d="M77.613 30.9845C77.613 33.3843 72.7779 37.0009 70.8098 37.0009C68.8417 37.0009 64.9785 33.3843 64.9785 30.9845C64.9785 28.5847 68.8417 27.9763 70.8098 27.9763C72.7779 27.9763 77.613 28.5847 77.613 30.9845Z" fill="black"/>
    <ellipse cx="48.2815" cy="28.8789" rx="2.25616" ry="2.70739" fill="black"/>
</svg>
