<svg width="977" height="267" viewBox="0 0 977 267" fill="none"
    xmlns="http://www.w3.org/2000/svg">
    <g style="mix-blend-mode:color-dodge" opacity="0.8">
        <path d="M1.5 239.891C1.5 239.891 117.359 30.4083 372.348 160.473C508.614 229.975 574.908 151.639 640.448 151.808C739.201 152.055 793.555 266.211 976 151.891" stroke="url(#paint0_linear_222_11789)" stroke-width="0.5" stroke-miterlimit="10"/>
        <path d="M1.5 240.391C1.5 240.391 124.583 25.095 377.26 152.38C518.632 222.895 579.027 159.33 647.569 158.94C747.244 158.629 804.45 259.066 975.5 151.891" stroke="url(#paint1_linear_222_11789)" stroke-width="0.5" stroke-miterlimit="10"/>
        <path d="M1.5 240.391C1.5 240.391 131.353 20.6781 382.171 144.287C528.403 216.347 583.146 166.865 654.69 166.085C755.274 164.994 816.346 251.921 976 151.891" stroke="url(#paint2_linear_222_11789)" stroke-width="0.5" stroke-miterlimit="10"/>
        <path d="M1.5 240.391C1.5 240.391 138.421 15.6766 387.083 136.193C538.317 209.488 587.265 174.503 661.81 173.23C763.317 171.503 827.754 244.776 976 151.891" stroke="url(#paint3_linear_222_11789)" stroke-width="0.5" stroke-miterlimit="10"/>
        <path d="M1.5 240.391C1.5 240.391 145.542 10.5972 391.995 128.1C548.258 202.603 591.384 182.155 668.918 180.375C771.348 178.037 838.65 237.631 975.5 151.891" stroke="url(#paint4_linear_222_11789)" stroke-width="0.5" stroke-miterlimit="10"/>
        <path d="M1.5 239.891C1.5 239.891 152.689 5.45279 396.919 120.007C558.237 195.679 595.516 189.807 676.051 187.52C779.391 184.584 850.558 229.986 976 151.391" stroke="url(#paint5_linear_222_11789)" stroke-width="0.5" stroke-miterlimit="10"/>
        <path d="M1.5 240.391C1.5 240.391 159.874 0.230446 401.831 111.913C568.216 188.716 599.635 197.484 683.172 194.665C787.434 191.158 861.771 222.661 975.804 151.211" stroke="url(#paint6_linear_222_11789)" stroke-width="0.5" stroke-miterlimit="10"/>
        <path d="M1.5 239.891C1.5 239.891 167.086 -5.0569 406.743 103.82C578.208 181.713 603.754 205.162 690.292 201.81C795.477 197.744 873.375 215.696 976 151.391" stroke="url(#paint7_linear_222_11789)" stroke-width="0.5" stroke-miterlimit="10"/>
        <path d="M1.5 239.891C1.5 239.891 174.323 -10.3832 411.654 95.7266C588.227 174.672 607.873 212.853 697.4 208.955C803.494 204.331 884.771 208.551 976 151.391" stroke="url(#paint8_linear_222_11789)" stroke-width="0.5" stroke-miterlimit="10"/>
        <path d="M1.5 239.891C1.5 239.891 181.587 -15.7744 416.566 87.6332C598.258 167.592 611.992 220.556 704.521 216.1C811.537 210.943 896.179 201.406 976 151.391" stroke="url(#paint9_linear_222_11789)" stroke-width="0.5" stroke-miterlimit="10"/>
        <path d="M1.5 240.391C1.5 240.391 188.876 -21.2176 421.478 79.5399C608.315 160.473 616.111 228.273 711.641 223.245C819.58 217.568 907.588 194.261 976 151.391" stroke="url(#paint10_linear_222_11789)" stroke-width="0.5" stroke-miterlimit="10"/>
        <path d="M1.5 239.891C1.5 239.891 196.179 -26.7127 426.402 71.4466C618.398 153.302 620.256 236.002 718.775 230.39C827.637 224.194 918.483 187.116 975.5 151.391" stroke="url(#paint11_linear_222_11789)" stroke-width="0.5" stroke-miterlimit="10"/>
        <path d="M1 240.391C1 240.391 203.494 -32.2468 431.314 63.3532C628.481 146.092 624.375 243.745 725.882 237.535C835.667 230.832 930.392 179.971 976 151.391" stroke="url(#paint12_linear_222_11789)" stroke-width="0.5" stroke-miterlimit="10"/>
        <path d="M1.25977 240.133C1.25977 240.133 210.836 -37.82 436.226 55.2599C638.591 138.83 628.508 251.682 733.003 244.68C843.723 237.691 941.801 172.826 976 151.391" stroke="url(#paint13_linear_222_11789)" stroke-width="0.5" stroke-miterlimit="10"/>
        <path d="M1.5 240.391C1.5 240.391 218.178 -43.419 441.138 47.1666C648.713 131.517 632.64 259.386 740.124 251.825C851.766 244.278 953.183 165.681 976 151.391" stroke="url(#paint14_linear_222_11789)" stroke-width="0.5" stroke-miterlimit="10"/>
        <path d="M1.25977 240.391C1.25977 240.391 225.675 -71.7024 446.049 16.8046C659.004 101.531 636.759 244.808 747.245 236.702C859.797 228.595 964.592 159.036 976 151.891" stroke="url(#paint15_linear_222_11789)" stroke-width="0.5" stroke-miterlimit="10"/>
        <path d="M1.5 239.891C1.5 239.891 232.9 -54.7601 450.961 30.9799C669.022 116.72 640.878 274.78 754.352 266.115C867.827 257.45 976 151.391 976 151.391" stroke="url(#paint16_linear_222_11789)" stroke-width="0.5" stroke-miterlimit="10"/>
    </g>
    <g style="mix-blend-mode:color-dodge" opacity="0.8">
        <path d="M1.5 239.891C1.5 239.891 117.359 30.4083 372.348 160.473C508.614 229.975 574.908 151.639 640.448 151.808C739.201 152.055 793.555 266.211 976 151.891" stroke="url(#paint17_linear_222_11789)" stroke-width="0.5" stroke-miterlimit="10"/>
        <path d="M1.5 240.391C1.5 240.391 124.583 25.095 377.26 152.38C518.632 222.895 579.027 159.33 647.569 158.94C747.244 158.629 804.45 259.066 975.5 151.891" stroke="url(#paint18_linear_222_11789)" stroke-width="0.5" stroke-miterlimit="10"/>
        <path d="M1.5 240.391C1.5 240.391 131.353 20.6781 382.171 144.287C528.403 216.347 583.146 166.865 654.69 166.085C755.274 164.994 816.346 251.921 976 151.891" stroke="url(#paint19_linear_222_11789)" stroke-width="0.5" stroke-miterlimit="10"/>
        <path d="M1.5 240.391C1.5 240.391 138.421 15.6766 387.083 136.193C538.317 209.488 587.265 174.503 661.81 173.23C763.317 171.503 827.754 244.776 976 151.891" stroke="url(#paint20_linear_222_11789)" stroke-width="0.5" stroke-miterlimit="10"/>
        <path d="M1.5 240.391C1.5 240.391 145.542 10.5972 391.995 128.1C548.258 202.603 591.384 182.155 668.918 180.375C771.348 178.037 838.65 237.631 975.5 151.891" stroke="url(#paint21_linear_222_11789)" stroke-width="0.5" stroke-miterlimit="10"/>
        <path d="M1.5 239.891C1.5 239.891 152.689 5.45279 396.919 120.007C558.237 195.679 595.516 189.807 676.051 187.52C779.391 184.584 850.558 229.986 976 151.391" stroke="url(#paint22_linear_222_11789)" stroke-width="0.5" stroke-miterlimit="10"/>
        <path d="M1.5 240.391C1.5 240.391 159.874 0.230446 401.831 111.913C568.216 188.716 599.635 197.484 683.172 194.665C787.434 191.158 861.771 222.661 975.804 151.211" stroke="url(#paint23_linear_222_11789)" stroke-width="0.5" stroke-miterlimit="10"/>
        <path d="M1.5 239.891C1.5 239.891 167.086 -5.0569 406.743 103.82C578.208 181.713 603.754 205.162 690.292 201.81C795.477 197.744 873.375 215.696 976 151.391" stroke="url(#paint24_linear_222_11789)" stroke-width="0.5" stroke-miterlimit="10"/>
        <path d="M1.5 239.891C1.5 239.891 174.323 -10.3832 411.654 95.7266C588.227 174.672 607.873 212.853 697.4 208.955C803.494 204.331 884.771 208.551 976 151.391" stroke="url(#paint25_linear_222_11789)" stroke-width="0.5" stroke-miterlimit="10"/>
        <path d="M1.5 239.891C1.5 239.891 181.587 -15.7744 416.566 87.6332C598.258 167.592 611.992 220.556 704.521 216.1C811.537 210.943 896.179 201.406 976 151.391" stroke="url(#paint26_linear_222_11789)" stroke-width="0.5" stroke-miterlimit="10"/>
        <path d="M1.5 240.391C1.5 240.391 188.876 -21.2176 421.478 79.5399C608.315 160.473 616.111 228.273 711.641 223.245C819.58 217.568 907.588 194.261 976 151.391" stroke="url(#paint27_linear_222_11789)" stroke-width="0.5" stroke-miterlimit="10"/>
        <path d="M1.5 239.891C1.5 239.891 196.179 -26.7127 426.402 71.4466C618.398 153.302 620.256 236.002 718.775 230.39C827.637 224.194 918.483 187.116 975.5 151.391" stroke="url(#paint28_linear_222_11789)" stroke-width="0.5" stroke-miterlimit="10"/>
        <path d="M1 240.391C1 240.391 203.494 -32.2468 431.314 63.3532C628.481 146.092 624.375 243.745 725.882 237.535C835.667 230.832 930.392 179.971 976 151.391" stroke="url(#paint29_linear_222_11789)" stroke-width="0.5" stroke-miterlimit="10"/>
        <path d="M1.25977 240.133C1.25977 240.133 210.836 -37.82 436.226 55.2599C638.591 138.83 628.508 251.682 733.003 244.68C843.723 237.691 941.801 172.826 976 151.391" stroke="url(#paint30_linear_222_11789)" stroke-width="0.5" stroke-miterlimit="10"/>
        <path d="M1.5 240.391C1.5 240.391 218.178 -43.419 441.138 47.1666C648.713 131.517 632.64 259.386 740.124 251.825C851.766 244.278 953.183 165.681 976 151.391" stroke="url(#paint31_linear_222_11789)" stroke-width="0.5" stroke-miterlimit="10"/>
        <path d="M1.25977 240.391C1.25977 240.391 225.675 -71.7024 446.049 16.8046C659.004 101.531 636.759 244.808 747.245 236.702C859.797 228.595 964.592 159.036 976 151.891" stroke="url(#paint32_linear_222_11789)" stroke-width="0.5" stroke-miterlimit="10"/>
        <path d="M1.5 239.891C1.5 239.891 232.9 -54.7601 450.961 30.9799C669.022 116.72 640.878 274.78 754.352 266.115C867.827 257.45 976 151.391 976 151.391" stroke="url(#paint33_linear_222_11789)" stroke-width="0.5" stroke-miterlimit="10"/>
    </g>
    <defs>
        <linearGradient id="paint0_linear_222_11789" x1="1.10335" y1="135.66" x2="975.973" y2="135.66" gradientUnits="userSpaceOnUse">
            <stop stop-color="#87888A"/>
            <stop offset="0.5" stop-color="#E5E5E5"/>
            <stop offset="1" stop-color="#7D7E80"/>
        </linearGradient>
        <linearGradient id="paint1_linear_222_11789" x1="1.09036" y1="136.817" x2="2.29878" y2="136.817" gradientUnits="userSpaceOnUse">
            <stop stop-color="#87888A"/>
            <stop offset="0.5" stop-color="#E5E5E5"/>
            <stop offset="1" stop-color="#7D7E80"/>
        </linearGradient>
        <linearGradient id="paint2_linear_222_11789" x1="1.07737" y1="137.414" x2="2.29878" y2="137.414" gradientUnits="userSpaceOnUse">
            <stop stop-color="#87888A"/>
            <stop offset="0.5" stop-color="#E5E5E5"/>
            <stop offset="1" stop-color="#7D7E80"/>
        </linearGradient>
        <linearGradient id="paint3_linear_222_11789" x1="1.06438" y1="137.388" x2="2.29878" y2="137.388" gradientUnits="userSpaceOnUse">
            <stop stop-color="#87888A"/>
            <stop offset="0.5" stop-color="#E5E5E5"/>
            <stop offset="1" stop-color="#7D7E80"/>
        </linearGradient>
        <linearGradient id="paint4_linear_222_11789" x1="1.05137" y1="136.96" x2="2.29878" y2="136.96" gradientUnits="userSpaceOnUse">
            <stop stop-color="#87888A"/>
            <stop offset="0.5" stop-color="#E5E5E5"/>
            <stop offset="1" stop-color="#7D7E80"/>
        </linearGradient>
        <linearGradient id="paint5_linear_222_11789" x1="1.03837" y1="136.284" x2="2.29877" y2="136.284" gradientUnits="userSpaceOnUse">
            <stop stop-color="#87888A"/>
            <stop offset="0.5" stop-color="#E5E5E5"/>
            <stop offset="1" stop-color="#7D7E80"/>
        </linearGradient>
        <linearGradient id="paint6_linear_222_11789" x1="1.03837" y1="135.557" x2="2.29877" y2="135.557" gradientUnits="userSpaceOnUse">
            <stop stop-color="#87888A"/>
            <stop offset="0.5" stop-color="#E5E5E5"/>
            <stop offset="1" stop-color="#7D7E80"/>
        </linearGradient>
        <linearGradient id="paint7_linear_222_11789" x1="1.0254" y1="135.31" x2="2.29879" y2="135.31" gradientUnits="userSpaceOnUse">
            <stop stop-color="#87888A"/>
            <stop offset="0.5" stop-color="#E5E5E5"/>
            <stop offset="1" stop-color="#7D7E80"/>
        </linearGradient>
        <linearGradient id="paint8_linear_222_11789" x1="1.02539" y1="136.622" x2="2.29878" y2="136.622" gradientUnits="userSpaceOnUse">
            <stop stop-color="#87888A"/>
            <stop offset="0.5" stop-color="#E5E5E5"/>
            <stop offset="1" stop-color="#7D7E80"/>
        </linearGradient>
        <linearGradient id="paint9_linear_222_11789" x1="1.0124" y1="137.726" x2="2.29878" y2="137.726" gradientUnits="userSpaceOnUse">
            <stop stop-color="#87888A"/>
            <stop offset="0.5" stop-color="#E5E5E5"/>
            <stop offset="1" stop-color="#7D7E80"/>
        </linearGradient>
        <linearGradient id="paint10_linear_222_11789" x1="1.0124" y1="138.661" x2="2.29878" y2="138.661" gradientUnits="userSpaceOnUse">
            <stop stop-color="#87888A"/>
            <stop offset="0.5" stop-color="#E5E5E5"/>
            <stop offset="1" stop-color="#7D7E80"/>
        </linearGradient>
        <linearGradient id="paint11_linear_222_11789" x1="0.999402" y1="139.428" x2="2.29878" y2="139.428" gradientUnits="userSpaceOnUse">
            <stop stop-color="#87888A"/>
            <stop offset="0.5" stop-color="#E5E5E5"/>
            <stop offset="1" stop-color="#7D7E80"/>
        </linearGradient>
        <linearGradient id="paint12_linear_222_11789" x1="0.999402" y1="140.065" x2="2.29878" y2="140.065" gradientUnits="userSpaceOnUse">
            <stop stop-color="#87888A"/>
            <stop offset="0.5" stop-color="#E5E5E5"/>
            <stop offset="1" stop-color="#7D7E80"/>
        </linearGradient>
        <linearGradient id="paint13_linear_222_11789" x1="0.99989" y1="140.597" x2="2.29927" y2="140.597" gradientUnits="userSpaceOnUse">
            <stop stop-color="#87888A"/>
            <stop offset="0.5" stop-color="#E5E5E5"/>
            <stop offset="1" stop-color="#7D7E80"/>
        </linearGradient>
        <linearGradient id="paint14_linear_222_11789" x1="0.99989" y1="141.013" x2="2.29927" y2="141.013" gradientUnits="userSpaceOnUse">
            <stop stop-color="#87888A"/>
            <stop offset="0.5" stop-color="#E5E5E5"/>
            <stop offset="1" stop-color="#7D7E80"/>
        </linearGradient>
        <linearGradient id="paint15_linear_222_11789" x1="0.99989" y1="142.897" x2="2.29927" y2="142.897" gradientUnits="userSpaceOnUse">
            <stop stop-color="#87888A"/>
            <stop offset="0.5" stop-color="#E5E5E5"/>
            <stop offset="1" stop-color="#7D7E80"/>
        </linearGradient>
        <linearGradient id="paint16_linear_222_11789" x1="0.99989" y1="145.248" x2="976" y2="145.248" gradientUnits="userSpaceOnUse">
            <stop stop-color="#87888A"/>
            <stop offset="0.5" stop-color="#E5E5E5"/>
            <stop offset="1" stop-color="#7D7E80"/>
        </linearGradient>
        <linearGradient id="paint17_linear_222_11789" x1="0.999891" y1="181.011" x2="975.999" y2="181.011" gradientUnits="userSpaceOnUse">
            <stop stop-color="#001D3C"/>
            <stop offset="0.5" stop-color="#E5E5E5"/>
            <stop offset="1" stop-color="#001D3C"/>
        </linearGradient>
        <linearGradient id="paint18_linear_222_11789" x1="1.00015" y1="178.483" x2="975.499" y2="178.483" gradientUnits="userSpaceOnUse">
            <stop stop-color="#001D3C"/>
            <stop offset="0.5" stop-color="#E5E5E5"/>
            <stop offset="1" stop-color="#001D3C"/>
        </linearGradient>
        <linearGradient id="paint19_linear_222_11789" x1="0.999891" y1="175.794" x2="975.999" y2="175.794" gradientUnits="userSpaceOnUse">
            <stop stop-color="#001D3C"/>
            <stop offset="0.5" stop-color="#E5E5E5"/>
            <stop offset="1" stop-color="#001D3C"/>
        </linearGradient>
        <linearGradient id="paint20_linear_222_11789" x1="0.999891" y1="172.948" x2="975.999" y2="172.948" gradientUnits="userSpaceOnUse">
            <stop stop-color="#001D3C"/>
            <stop offset="0.5" stop-color="#E5E5E5"/>
            <stop offset="1" stop-color="#001D3C"/>
        </linearGradient>
        <linearGradient id="paint21_linear_222_11789" x1="1.00015" y1="170.045" x2="975.499" y2="170.045" gradientUnits="userSpaceOnUse">
            <stop stop-color="#001D3C"/>
            <stop offset="0.5" stop-color="#E5E5E5"/>
            <stop offset="1" stop-color="#001D3C"/>
        </linearGradient>
        <linearGradient id="paint22_linear_222_11789" x1="0.999891" y1="166.807" x2="975.999" y2="166.807" gradientUnits="userSpaceOnUse">
            <stop stop-color="#001D3C"/>
            <stop offset="0.5" stop-color="#E5E5E5"/>
            <stop offset="1" stop-color="#001D3C"/>
        </linearGradient>
        <linearGradient id="paint23_linear_222_11789" x1="0.999991" y1="164.083" x2="975.804" y2="164.083" gradientUnits="userSpaceOnUse">
            <stop stop-color="#001D3C"/>
            <stop offset="0.5" stop-color="#E5E5E5"/>
            <stop offset="1" stop-color="#001D3C"/>
        </linearGradient>
        <linearGradient id="paint24_linear_222_11789" x1="0.999891" y1="160.748" x2="975.999" y2="160.748" gradientUnits="userSpaceOnUse">
            <stop stop-color="#001D3C"/>
            <stop offset="0.5" stop-color="#E5E5E5"/>
            <stop offset="1" stop-color="#001D3C"/>
        </linearGradient>
        <linearGradient id="paint25_linear_222_11789" x1="0.999891" y1="157.653" x2="975.999" y2="157.653" gradientUnits="userSpaceOnUse">
            <stop stop-color="#001D3C"/>
            <stop offset="0.5" stop-color="#E5E5E5"/>
            <stop offset="1" stop-color="#001D3C"/>
        </linearGradient>
        <linearGradient id="paint26_linear_222_11789" x1="0.999891" y1="154.513" x2="975.999" y2="154.513" gradientUnits="userSpaceOnUse">
            <stop stop-color="#001D3C"/>
            <stop offset="0.5" stop-color="#E5E5E5"/>
            <stop offset="1" stop-color="#001D3C"/>
        </linearGradient>
        <linearGradient id="paint27_linear_222_11789" x1="0.999891" y1="151.607" x2="975.999" y2="151.607" gradientUnits="userSpaceOnUse">
            <stop stop-color="#001D3C"/>
            <stop offset="0.5" stop-color="#E5E5E5"/>
            <stop offset="1" stop-color="#001D3C"/>
        </linearGradient>
        <linearGradient id="paint28_linear_222_11789" x1="1.00015" y1="148.111" x2="975.499" y2="148.111" gradientUnits="userSpaceOnUse">
            <stop stop-color="#001D3C"/>
            <stop offset="0.5" stop-color="#E5E5E5"/>
            <stop offset="1" stop-color="#001D3C"/>
        </linearGradient>
        <linearGradient id="paint29_linear_222_11789" x1="0.499634" y1="145.128" x2="975.999" y2="145.128" gradientUnits="userSpaceOnUse">
            <stop stop-color="#001D3C"/>
            <stop offset="0.5" stop-color="#E5E5E5"/>
            <stop offset="1" stop-color="#001D3C"/>
        </linearGradient>
        <linearGradient id="paint30_linear_222_11789" x1="0.759533" y1="144.209" x2="976" y2="144.209" gradientUnits="userSpaceOnUse">
            <stop stop-color="#001D3C"/>
            <stop offset="0.5" stop-color="#E5E5E5"/>
            <stop offset="1" stop-color="#001D3C"/>
        </linearGradient>
        <linearGradient id="paint31_linear_222_11789" x1="0.99989" y1="144.596" x2="976" y2="144.596" gradientUnits="userSpaceOnUse">
            <stop stop-color="#001D3C"/>
            <stop offset="0.5" stop-color="#E5E5E5"/>
            <stop offset="1" stop-color="#001D3C"/>
        </linearGradient>
        <linearGradient id="paint32_linear_222_11789" x1="0.759533" y1="124.843" x2="976" y2="124.843" gradientUnits="userSpaceOnUse">
            <stop stop-color="#001D3C"/>
            <stop offset="0.5" stop-color="#E5E5E5"/>
            <stop offset="1" stop-color="#001D3C"/>
        </linearGradient>
        <linearGradient id="paint33_linear_222_11789" x1="0.99989" y1="145.248" x2="976" y2="145.248" gradientUnits="userSpaceOnUse">
            <stop stop-color="#001D3C"/>
            <stop offset="0.5" stop-color="#E5E5E5"/>
            <stop offset="1" stop-color="#001D3C"/>
        </linearGradient>
    </defs>
</svg>
