<svg width="907" height="221" viewBox="0 0 907 221" fill="none"
    xmlns="http://www.w3.org/2000/svg">
    <g filter="url(#filter0_f_222_11743)">
        <path d="M902.745 126.863C902.745 125.908 901.597 125.144 900.161 125.096C885.626 124.618 878.017 120.057 869.977 115.257C861.112 109.956 851.924 104.463 833.62 104.463C815.315 104.463 806.163 109.956 797.262 115.257C788.756 120.344 780.716 125.144 764.458 125.144C749.025 125.144 740.59 109.956 732.407 95.2935C723.578 79.461 714.462 63.1032 695.332 63.1032C676.202 63.1032 667.373 82.8042 658.22 103.651C650.001 122.35 641.495 141.669 626.206 141.669C610.916 141.669 601.8 104.32 594.263 74.3268C584.787 36.5963 576.604 4 557.044 4C537.483 4 529.157 13.0983 520.256 21.91C511.785 30.3158 503.782 38.2679 487.918 38.2679C469.29 38.2679 460.102 46.4349 451.237 54.3392C442.767 61.8853 434.763 69.0015 418.792 69.0015C400.057 69.0015 390.869 78.5774 382.004 87.8429C373.533 96.7024 365.494 105.037 349.666 105.037C333.838 105.037 325.834 96.8218 317.328 88.1295C308.427 79.0073 299.239 69.5985 280.504 69.5985C261.769 69.5985 252.796 103.413 243.321 142.576C235.784 173.763 226.416 212.568 211.378 212.568C196.34 212.568 186.972 171.614 179.435 138.731C169.96 97.5143 161.813 61.9091 142.252 61.9091C122.691 61.9091 114.006 78.5774 105.177 94.6965C96.9935 109.669 88.5232 125.144 73.126 125.144C57.7288 125.144 49.2585 116.929 40.7882 108.213C31.8873 99.1143 22.7351 89.6816 4 89.6816C19.8279 89.6816 27.8316 101.431 36.3378 110.123C45.2387 119.245 54.4268 128.654 73.1619 128.654C91.897 128.654 101.408 111.986 110.237 95.8666C118.42 80.8938 126.891 65.4195 142.288 65.4195C157.685 65.4195 166.658 106.35 174.231 139.233C183.706 180.474 191.853 216.079 211.45 216.079C231.046 216.079 239.193 182.265 248.633 143.101C256.17 111.914 265.537 73.1089 280.576 73.1089C296.404 73.1089 304.443 81.3236 312.913 90.0399C321.814 99.1382 330.967 108.571 349.702 108.571C368.437 108.571 377.625 98.9949 386.526 89.7294C394.996 80.8938 403.036 72.5358 418.828 72.5358C437.455 72.5358 446.643 64.3688 455.544 56.4645C464.014 48.9423 472.018 41.826 487.99 41.826C506.689 41.826 515.877 32.7277 524.778 23.916C533.248 15.5102 541.252 7.55813 557.116 7.55813C572.154 7.55813 581.521 44.9066 589.059 74.9238C598.534 112.654 606.717 145.227 626.242 145.227C645.766 145.227 654.201 125.526 663.389 104.654C671.608 85.9564 680.114 66.6374 695.403 66.6374C710.693 66.6374 719.307 81.8251 727.49 96.5113C736.319 112.32 745.4 128.678 764.565 128.678C783.731 128.678 792.058 123.185 800.923 117.884C809.429 112.798 817.433 107.998 833.691 107.998C849.95 107.998 857.99 112.798 866.496 117.884C874.93 122.923 883.616 128.105 900.09 128.63C901.597 128.678 902.853 127.842 902.853 126.839L902.745 126.863Z" fill="url(#paint0_linear_222_11743)"/>
    </g>
    <path d="M902.745 126.863C902.745 125.908 901.597 125.144 900.161 125.096C885.626 124.618 878.017 120.057 869.977 115.257C861.112 109.956 851.924 104.463 833.62 104.463C815.315 104.463 806.163 109.956 797.262 115.257C788.756 120.344 780.716 125.144 764.458 125.144C749.025 125.144 740.59 109.956 732.407 95.2935C723.578 79.461 714.462 63.1032 695.332 63.1032C676.202 63.1032 667.373 82.8042 658.22 103.651C650.001 122.35 641.495 141.669 626.206 141.669C610.916 141.669 601.8 104.32 594.263 74.3268C584.787 36.5963 576.604 4 557.044 4C537.483 4 529.157 13.0983 520.256 21.91C511.785 30.3158 503.782 38.2679 487.918 38.2679C469.29 38.2679 460.102 46.4349 451.237 54.3392C442.767 61.8853 434.763 69.0015 418.792 69.0015C400.057 69.0015 390.869 78.5774 382.004 87.8429C373.533 96.7024 365.494 105.037 349.666 105.037C333.838 105.037 325.834 96.8218 317.328 88.1295C308.427 79.0073 299.239 69.5985 280.504 69.5985C261.769 69.5985 252.796 103.413 243.321 142.576C235.784 173.763 226.416 212.568 211.378 212.568C196.34 212.568 186.972 171.614 179.435 138.731C169.96 97.5143 161.813 61.9091 142.252 61.9091C122.691 61.9091 114.006 78.5774 105.177 94.6965C96.9935 109.669 88.5232 125.144 73.126 125.144C57.7288 125.144 49.2585 116.929 40.7882 108.213C31.8873 99.1143 22.7351 89.6816 4 89.6816C19.8279 89.6816 27.8316 101.431 36.3378 110.123C45.2387 119.245 54.4268 128.654 73.1619 128.654C91.897 128.654 101.408 111.986 110.237 95.8666C118.42 80.8938 126.891 65.4195 142.288 65.4195C157.685 65.4195 166.658 106.35 174.231 139.233C183.706 180.474 191.853 216.079 211.45 216.079C231.046 216.079 239.193 182.265 248.633 143.101C256.17 111.914 265.537 73.1089 280.576 73.1089C296.404 73.1089 304.443 81.3236 312.913 90.0399C321.814 99.1382 330.967 108.571 349.702 108.571C368.437 108.571 377.625 98.9949 386.526 89.7294C394.996 80.8938 403.036 72.5358 418.828 72.5358C437.455 72.5358 446.643 64.3688 455.544 56.4645C464.014 48.9423 472.018 41.826 487.99 41.826C506.689 41.826 515.877 32.7277 524.778 23.916C533.248 15.5102 541.252 7.55813 557.116 7.55813C572.154 7.55813 581.521 44.9066 589.059 74.9238C598.534 112.654 606.717 145.227 626.242 145.227C645.766 145.227 654.201 125.526 663.389 104.654C671.608 85.9564 680.114 66.6374 695.403 66.6374C710.693 66.6374 719.307 81.8251 727.49 96.5113C736.319 112.32 745.4 128.678 764.565 128.678C783.731 128.678 792.058 123.185 800.923 117.884C809.429 112.798 817.433 107.998 833.691 107.998C849.95 107.998 857.99 112.798 866.496 117.884C874.93 122.923 883.616 128.105 900.09 128.63C901.597 128.678 902.853 127.842 902.853 126.839L902.745 126.863Z" fill="url(#paint1_linear_222_11743)"/>
    <defs>
        <filter id="filter0_f_222_11743" x="0" y="0" width="906.854" height="220.079" filterUnits="userSpaceOnUse" color-interpolation-filters="sRGB">
            <feFlood flood-opacity="0" result="BackgroundImageFix"/>
            <feBlend mode="normal" in="SourceGraphic" in2="BackgroundImageFix" result="shape"/>
            <feGaussianBlur stdDeviation="2" result="effect1_foregroundBlur_222_11743"/>
        </filter>
        <linearGradient id="paint0_linear_222_11743" x1="3.96411" y1="110.075" x2="971.907" y2="110.075" gradientUnits="userSpaceOnUse">
            <stop stop-color="#069EFC"/>
            <stop offset="1" stop-color="#14F4C9"/>
        </linearGradient>
        <linearGradient id="paint1_linear_222_11743" x1="3.96411" y1="110.075" x2="971.907" y2="110.075" gradientUnits="userSpaceOnUse">
            <stop stop-color="#069EFC"/>
            <stop offset="1" stop-color="#14F4C9"/>
        </linearGradient>
    </defs>
</svg>
